<svg xmlns="http://www.w3.org/2000/svg" viewBox="0 0 180 360" fill="none">
  <g stroke="#9fd3ff" stroke-width="2">
    <line x1="90" y1="10" x2="90" y2="350"/>
    <!-- upper spiral -->
    <path d="M90 40
             C 72 40, 64 56, 76 70
             C 92 88, 120 84, 120 66
             C 120 48, 102 40, 90 40" />
    <!-- middle spiral -->
    <path d="M90 60
             C 66 68, 60 92, 80 106
             C 102 122, 132 114, 136 90
             C 140 64, 110 52, 92 56" />
    <!-- lower loop around G line (y~210) -->
    <path d="M110 210
             C 110 232, 92 246, 76 242
             C 58 236, 58 212, 76 198
             C 94 184, 118 190, 120 210" />
    <!-- tail -->
    <path d="M90 150 C 90 230, 90 300, 84 350" />
  </g>
</svg>
